<svg width="358" height="105" viewBox="0 0 358 105" fill="none" xmlns="http://www.w3.org/2000/svg">
<path d="M50.072 52.336H34.328L34.2 102H11.8V52.336H0.024V32.112H11.8V27.888C11.8 18.416 13.976 11.6747 18.328 7.66399C22.68 3.568 29.72 1.52 39.448 1.52H50.2V20.464H42.904C39.32 20.464 36.9733 21.1467 35.864 22.512C34.84 23.792 34.328 26.608 34.328 30.96V32.112H50.072V52.336ZM82.955 102H59.403V3.43999H82.955V102ZM107.938 23.536C102.818 23.536 99.1913 22.7253 97.058 21.104C95.01 19.3973 93.986 16.368 93.986 12.016C93.986 7.664 95.138 4.63466 97.442 2.92799C99.746 1.22133 103.245 0.367996 107.938 0.367996C112.546 0.367996 116.002 1.22133 118.306 2.92799C120.695 4.63466 121.89 7.664 121.89 12.016C121.89 16.1973 120.738 19.184 118.434 20.976C116.215 22.6827 112.717 23.536 107.938 23.536ZM95.778 102V28.272C96.034 28.4427 96.3753 28.6133 96.802 28.784C97.2287 28.8693 97.826 28.9547 98.594 29.04C100.045 29.2107 101.623 29.3813 103.33 29.552C105.122 29.6373 106.658 29.68 107.938 29.68C108.621 29.68 109.303 29.68 109.986 29.68C110.754 29.5947 111.565 29.5093 112.418 29.424C114.125 29.3387 115.703 29.168 117.154 28.912C118.605 28.656 119.543 28.4 119.97 28.144V102H95.778ZM167.21 103.92C155.263 103.92 146.047 100.805 139.562 94.576C133.077 88.3467 129.834 79.0453 129.834 66.672V64.368C129.834 60.1867 130.218 56.3467 130.986 52.848C131.839 49.264 133.077 46.064 134.698 43.248C137.941 37.616 142.378 33.392 148.01 30.576C153.642 27.6747 160.085 26.224 167.338 26.224C170.922 26.224 174.293 26.5227 177.45 27.12C180.607 27.7173 183.551 28.5707 186.282 29.68C191.743 32.0693 196.053 35.696 199.21 40.56C202.453 45.3387 204.202 51.5253 204.458 59.12V59.504H180.266V58.992C179.925 54.4693 178.645 51.184 176.426 49.136C174.293 47.0027 171.306 45.936 167.466 45.936C163.199 45.936 159.786 47.472 157.226 50.544C154.751 53.5307 153.514 58.1387 153.514 64.368V66.416C153.514 72.1333 154.751 76.4853 157.226 79.472C159.786 82.3733 163.157 83.824 167.338 83.824C171.178 83.824 174.207 82.7573 176.426 80.624C178.73 78.4053 180.053 74.9493 180.394 70.256V70H204.586V70.64C204.415 74.48 203.903 78.0213 203.05 81.264C202.197 84.4213 200.959 87.1947 199.338 89.584C196.181 94.5333 191.829 98.16 186.282 100.464C180.821 102.768 174.463 103.92 167.21 103.92ZM262.805 102L245.909 69.872L236.565 81.008V102H213.653V3.43999H236.565V56.688L260.885 27.76H287.765L263.317 56.432L288.661 102H262.805ZM323.135 104.048C312.042 104.048 303.466 101.701 297.407 97.008C291.348 92.3147 287.722 85.7013 286.527 77.168H310.591C311.359 80.1547 312.852 82.416 315.071 83.952C317.375 85.488 320.447 86.256 324.287 86.256C327.956 86.256 330.602 85.7013 332.223 84.592C333.93 83.3973 334.783 81.776 334.783 79.728C334.783 78.8747 334.57 78.1493 334.143 77.552C333.802 76.8693 333.204 76.3147 332.351 75.888C330.815 75.0347 328.724 74.3947 326.079 73.968C323.434 73.5413 320.575 73.1573 317.503 72.816C314.346 72.3893 311.103 71.8347 307.775 71.152C304.532 70.384 301.546 69.232 298.815 67.696C295.999 66.2453 293.738 64.1547 292.031 61.424C290.41 58.6933 289.599 55.1093 289.599 50.672C289.599 43.4187 292.372 37.5307 297.919 33.008C303.466 28.4 311.487 26.096 321.983 26.096C333.162 26.096 341.439 28.4 346.815 33.008C352.191 37.5307 355.434 43.504 356.543 50.928H333.631C333.119 48.2827 331.839 46.32 329.791 45.04C327.828 43.6747 325.14 42.992 321.727 42.992C318.143 42.992 315.626 43.5893 314.175 44.784C312.724 45.9787 311.999 47.472 311.999 49.264C311.999 51.568 313.492 53.104 316.479 53.872C319.551 54.64 323.818 55.3653 329.279 56.048C332.522 56.4747 335.764 57.072 339.007 57.84C342.335 58.608 345.407 59.76 348.223 61.296C350.954 62.832 353.172 64.9653 354.879 67.696C356.586 70.3413 357.439 73.84 357.439 78.192C357.439 80.6667 357.098 83.0133 356.415 85.232C355.818 87.4507 354.922 89.5413 353.727 91.504C351.167 95.344 347.327 98.416 342.207 100.72C337.172 102.939 330.815 104.048 323.135 104.048Z" fill="#7EB4CE"/>
</svg>
